<?xml version="1.0" encoding="UTF-8"?>
<svg id="Layer_1" data-name="Layer 1" xmlns="http://www.w3.org/2000/svg" width="100" height="80" viewBox="0 0 100 80">
  <defs>
    <style>
      .cls-1 {
        fill: #14344a;
        stroke-width: .5px;
      }

      .cls-1, .cls-2 {
        stroke: #14344a;
      }

      .cls-2 {
        fill: none;
      }
    </style>
  </defs>
  <g id="Artboard">
    <g id="Computer">
      <path id="Shape" class="cls-1" d="M94.15,65.59H5.73c-3.65,0-4.67-2.97-4.72-4.62h0c0-.27,.22-.49,.49-.49H98.34c.27,0,.49,.22,.49,.49,.05,1.56-.92,4.62-4.67,4.62ZM2.03,61.36c.15,1.02,.78,3.26,3.7,3.26H94.15c2.92,0,3.55-2.24,3.7-3.26H2.03Z"/>
      <path id="Shape-2" data-name="Shape" class="cls-1" d="M30.6,61.46H13.37q-3.75,0-3.89-.34c-.03-.06-.05-.13-.05-.19V18.78c0-1.61,.97-4.72,4.72-4.72H85.74c3.7,0,4.72,3.07,4.72,4.72V60.87c0,.27-.22,.49-.49,.49H30.6v.1Zm-20.2-1.02c5.06,.1,52.95,.05,79.03,0V18.78c0-.15-.05-3.75-3.75-3.75H14.15c-3.7,0-3.75,3.55-3.75,3.75V60.44h0Z"/>
      <path id="Shape-3" data-name="Shape" class="cls-1" d="M85.73,57.17H14.15c-.27,0-.49-.22-.49-.49V18.83h0c0-.27,.22-.49,.49-.49H85.73c.27,0,.49,.22,.49,.49V56.74c-.03,.25-.24,.44-.49,.44Zm-71.1-.97H85.25V19.27H14.64V56.2Z"/>
      <path id="Shape-4" data-name="Shape" class="cls-1" d="M47.87,52.94H18.38c-.27,0-.49-.22-.49-.49V22.96c0-.27,.22-.49,.49-.49h29.49c.27,0,.49,.22,.49,.49v29.49c0,.27-.22,.49-.49,.49Zm-29-.97h28.52V23.45H18.87v28.52Z"/>
      <path id="Path" class="cls-1" d="M73.13,27.68h-21.07c-.27,0-.49-.22-.49-.49s.22-.49,.49-.49h21.07c.27,0,.49,.22,.49,.49s-.22,.49-.49,.49Z"/>
      <path id="Path-2" data-name="Path" class="cls-1" d="M64.71,31.87h-12.65c-.27,0-.49-.22-.49-.49s.22-.49,.49-.49h12.65c.27,0,.49,.22,.49,.49s-.22,.49-.49,.49Z"/>
      <path id="Path-3" data-name="Path" class="cls-1" d="M68.9,36.1h-16.84c-.27,0-.49-.22-.49-.49s.22-.49,.49-.49h16.84c.27,0,.49,.22,.49,.49s-.22,.49-.49,.49Z"/>
      <path id="Path-4" data-name="Path" class="cls-1" d="M73.13,40.34h-21.07c-.27,0-.49-.22-.49-.49s.22-.49,.49-.49h21.07c.27,0,.49,.22,.49,.49s-.22,.49-.49,.49Z"/>
      <path id="Shape-5" data-name="Shape" class="cls-1" d="M64.71,52.94h-12.65c-.27,0-.49-.22-.49-.49v-4.23c0-.27,.22-.49,.49-.49h12.65c.27,0,.49,.22,.49,.49v4.23c0,.27-.22,.49-.49,.49Zm-12.17-.97h11.68v-3.26h-11.68v3.26h0Z"/>
      <path id="Shape-6" data-name="Shape" class="cls-1" d="M81.55,52.94h-12.65c-.27,0-.49-.22-.49-.49v-4.23c0-.27,.22-.49,.49-.49h12.65c.27,0,.49,.22,.49,.49v4.23c0,.27-.22,.49-.49,.49Zm-12.16-.97h11.68v-3.26h-11.68v3.26Z"/>
      <line id="Path-5" data-name="Path" class="cls-2" x1="30" y1="30.23" x2="35.89" y2="30.23"/>
      <path id="Path-6" data-name="Path" class="cls-2" d="M33.08,32.74c-3.99,.05-7.18,3.32-7.13,7.31,.05,3.99,3.32,7.18,7.31,7.13,3.99-.05,7.18-3.32,7.13-7.31-.05-3.99-3.32-7.18-7.31-7.13Z"/>
      <path id="Path-7" data-name="Path" class="cls-2" d="M33.1,34.58c-2.97,.04-5.35,2.47-5.31,5.44,.04,2.97,2.47,5.35,5.44,5.31,2.97-.04,5.35-2.47,5.31-5.44-.04-2.97-2.47-5.35-5.44-5.31Z"/>
      <polyline id="Path-8" data-name="Path" class="cls-2" points="33.13 28.39 30 30.23 31.7 32.76"/>
      <polyline id="Path-9" data-name="Path" class="cls-2" points="32.74 28.39 35.89 30.23 34.19 32.76"/>
    </g>
  </g>
</svg>