<?xml version="1.0" encoding="UTF-8"?>
<svg id="Layer_1" data-name="Layer 1" xmlns="http://www.w3.org/2000/svg" width="600" height="600" viewBox="0 0 600 600">
  <defs>
    <style>
      .cls-1 {
        stroke-width: 10px;
      }

      .cls-1, .cls-2, .cls-3 {
        stroke: #2b3c54;
        stroke-miterlimit: 10;
      }

      .cls-1, .cls-3 {
        fill: none;
      }

      .cls-2 {
        fill: #fff;
      }

      .cls-2, .cls-3 {
        stroke-width: 6px;
      }
    </style>
  </defs>
  <g>
    <polygon class="cls-2" points="205.17 285.01 301.38 377.12 397.14 284.54 357.23 239.49 301.04 239.63 244.85 239.77 205.17 285.01"/>
    <path class="cls-2" d="M273.26,284.84l26.91,88.31c.38,1.23,2.04,1.23,2.41,0l26.86-88.45"/>
    <line class="cls-3" x1="205.17" y1="285.01" x2="397.14" y2="284.54"/>
    <path class="cls-2" d="M244.85,239.77l27.19,43.15c.57,.91,1.85,.9,2.41-.01l25.39-41.33c.56-.92,1.84-.92,2.41,0l25.98,41.22c.57,.91,1.85,.9,2.41-.01l26.59-43.27"/>
    <polygon class="cls-3" points="205.17 285.01 301.38 377.12 397.14 284.54 357.23 239.49 301.04 239.63 244.85 239.77 205.17 285.01"/>
  </g>
  <path class="cls-1" d="M494.48,140.45c-43.58-43.58-114.88-43.58-158.46,0l-35.91,35.91-35.91-35.91c-43.58-43.58-114.88-43.58-158.46,0-4.62,0-14.71,18.01-16.92,21.71-5,8.39-8.88,17.43-11.53,26.83-5.12,18.14-5.59,37.52-1.4,55.9,5.85,25.64,21.88,46.69,39.93,65.15,35.01,35.81,71.41,70.36,106.83,105.78,4.85,4.85,77.46,77.46,77.46,77.46,40.63-40.63,46.63-45.97,87.31-86.55,34.29-34.21,70.06-67.56,102.58-103.45,20.87-23.03,36.63-49.78,37.09-81.58,.44-30.07-11.31-59.95-32.61-81.25Z"/>
</svg>