<?xml version="1.0" encoding="UTF-8"?>
<svg id="Layer_1" data-name="Layer 1" xmlns="http://www.w3.org/2000/svg" width="100" height="80" viewBox="0 0 100 80">
  <defs>
    <style>
      .cls-1 {
        fill: none;
        stroke: #14344a;
      }

      .cls-2 {
        fill: #14344a;
      }
    </style>
  </defs>
  <g id="Artboard">
    <g id="Add-100">
      <g id="ADD">
        <g id="path-1-link">
          <path id="path-1" d="M35.62,38.94l1.31-3.69h4.78l1.23,3.69h1.79l-4.39-12.33h-1.85l-4.55,12.33h1.68Zm5.56-5.05h-3.78l1.95-5.45,1.83,5.45Zm9.99,5.05c2.07,0,3.54-.93,4.39-2.8,.48-1.06,.72-2.24,.72-3.55,0-1.7-.41-3.09-1.23-4.17-.92-1.2-2.21-1.81-3.87-1.81h-4.9v12.33h4.88Zm-.31-1.43h-2.92v-9.47h2.9c1.32,0,2.28,.42,2.88,1.27,.6,.85,.89,2.03,.89,3.56,0,.4-.04,.83-.12,1.29-.14,.78-.38,1.42-.7,1.91-.41,.62-.93,1.04-1.56,1.26-.36,.12-.81,.18-1.37,.18h0Zm12.48,1.43c2.07,0,3.54-.93,4.39-2.8,.48-1.06,.72-2.24,.72-3.55,0-1.7-.41-3.09-1.23-4.17-.92-1.2-2.21-1.81-3.87-1.81h-4.9v12.33h4.88Zm-.31-1.43h-2.92v-9.47h2.9c1.32,0,2.28,.42,2.88,1.27,.6,.85,.89,2.03,.89,3.56,0,.4-.04,.83-.12,1.29-.14,.78-.38,1.42-.7,1.91-.41,.62-.93,1.04-1.56,1.26-.36,.12-.81,.18-1.37,.18h0Z"/>
        </g>
        <g id="path-1-link-2" data-name="path-1-link">
          <path id="path-1-2" data-name="path-1" class="cls-2" d="M35.62,38.94l1.31-3.69h4.78l1.23,3.69h1.79l-4.39-12.33h-1.85l-4.55,12.33h1.68Zm5.56-5.05h-3.78l1.95-5.45,1.83,5.45Zm9.99,5.05c2.07,0,3.54-.93,4.39-2.8,.48-1.06,.72-2.24,.72-3.55,0-1.7-.41-3.09-1.23-4.17-.92-1.2-2.21-1.81-3.87-1.81h-4.9v12.33h4.88Zm-.31-1.43h-2.92v-9.47h2.9c1.32,0,2.28,.42,2.88,1.27,.6,.85,.89,2.03,.89,3.56,0,.4-.04,.83-.12,1.29-.14,.78-.38,1.42-.7,1.91-.41,.62-.93,1.04-1.56,1.26-.36,.12-.81,.18-1.37,.18h0Zm12.48,1.43c2.07,0,3.54-.93,4.39-2.8,.48-1.06,.72-2.24,.72-3.55,0-1.7-.41-3.09-1.23-4.17-.92-1.2-2.21-1.81-3.87-1.81h-4.9v12.33h4.88Zm-.31-1.43h-2.92v-9.47h2.9c1.32,0,2.28,.42,2.88,1.27,.6,.85,.89,2.03,.89,3.56,0,.4-.04,.83-.12,1.29-.14,.78-.38,1.42-.7,1.91-.41,.62-.93,1.04-1.56,1.26-.36,.12-.81,.18-1.37,.18h0Z"/>
        </g>
      </g>
      <path id="Path" class="cls-1" d="M95.55,14.14H4.45c-1.83,0-3.31,1.51-3.31,3.38V51.03c0,1.86,1.48,3.38,3.31,3.38h62.25l-.32-11.66s.05-.07,.08-.03l11.46,11.69h17.63c1.83,0,3.31-1.51,3.31-3.38V17.51c0-1.86-1.48-3.37-3.31-3.37Z"/>
      <path id="Path-2" data-name="Path" class="cls-1" d="M66.46,42.71l13.02,13.29s.02,.06-.01,.08l-4.47,2.41s-.03,.04-.02,.06l2.65,5.94s0,.05-.02,.06l-2.33,1.32s-.06,0-.07-.02l-2.65-6.21s-.04-.04-.06-.03l-5.53,2.42s-.07,0-.07-.04l-.53-19.25s.05-.07,.08-.03Z"/>
    </g>
  </g>
</svg>