<?xml version="1.0" encoding="UTF-8"?>
<svg id="Layer_1" data-name="Layer 1" xmlns="http://www.w3.org/2000/svg" width="100" height="80" viewBox="0 0 100 80">
  <defs>
    <style>
      .cls-1 {
        fill: none;
      }

      .cls-1, .cls-2 {
        stroke: #14344a;
        stroke-linecap: round;
        stroke-linejoin: round;
      }

      .cls-2 {
        fill: #f9f9f7;
      }

      .cls-3 {
        fill: #14344a;
      }
    </style>
  </defs>
  <g id="Artboard">
    <g id="Money-100">
      <path id="Path" class="cls-2" d="M89.42,42.77L20.49,73.86c-1.35,.61-2.95,0-3.56-1.35L1.38,38.03c-.61-1.35,0-2.95,1.35-3.56L71.66,3.38c1.35-.61,2.95,0,3.56,1.35l15.56,34.48c.61,1.35,0,2.95-1.35,3.56Z"/>
      <g id="_" data-name="$">
        <g id="path-1-link">
          <path id="path-1" d="M71.45,22.31l-.39-1.33c.8-.33,1.38-.71,1.74-1.12,.64-.74,.78-1.73,.43-2.94-.25-.84-.74-1.39-1.49-1.64-.46-.15-1.26-.22-2.41-.2h0l-.98-3.33c.64-.16,1.17-.05,1.59,.32,.23,.21,.41,.48,.55,.82h0l1.2-.35c-.25-.77-.69-1.32-1.32-1.65-.63-.33-1.4-.39-2.33-.19h0l-.26-.9-.65,.19,.27,.91c-.92,.28-1.55,.77-1.89,1.48-.35,.71-.42,1.41-.21,2.1,.23,.78,.64,1.32,1.24,1.62,.6,.3,1.42,.4,2.46,.3h0l1.1,3.74c-.79,.16-1.4,.03-1.83-.41-.24-.24-.48-.67-.7-1.29h0l-1.21,.36c.23,.79,.54,1.37,.94,1.76,.73,.72,1.77,.92,3.13,.62h0l.39,1.33,.65-.19Zm-2.83-7.17c-.54,.05-.99-.01-1.37-.18-.37-.17-.63-.48-.76-.93-.11-.38-.09-.77,.06-1.19s.53-.73,1.12-.92h0l.95,3.22Zm2.14,4.83l-1.06-3.61c.62-.01,1.07,.03,1.37,.14,.51,.17,.85,.55,1.01,1.12,.11,.36,.12,.7,.05,1.02-.14,.62-.6,1.07-1.37,1.33h0Z"/>
        </g>
        <g id="path-1-link-2" data-name="path-1-link">
          <path id="path-1-2" data-name="path-1" class="cls-3" d="M71.45,22.31l-.39-1.33c.8-.33,1.38-.71,1.74-1.12,.64-.74,.78-1.73,.43-2.94-.25-.84-.74-1.39-1.49-1.64-.46-.15-1.26-.22-2.41-.2h0l-.98-3.33c.64-.16,1.17-.05,1.59,.32,.23,.21,.41,.48,.55,.82h0l1.2-.35c-.25-.77-.69-1.32-1.32-1.65-.63-.33-1.4-.39-2.33-.19h0l-.26-.9-.65,.19,.27,.91c-.92,.28-1.55,.77-1.89,1.48-.35,.71-.42,1.41-.21,2.1,.23,.78,.64,1.32,1.24,1.62,.6,.3,1.42,.4,2.46,.3h0l1.1,3.74c-.79,.16-1.4,.03-1.83-.41-.24-.24-.48-.67-.7-1.29h0l-1.21,.36c.23,.79,.54,1.37,.94,1.76,.73,.72,1.77,.92,3.13,.62h0l.39,1.33,.65-.19Zm-2.83-7.17c-.54,.05-.99-.01-1.37-.18-.37-.17-.63-.48-.76-.93-.11-.38-.09-.77,.06-1.19s.53-.73,1.12-.92h0l.95,3.22Zm2.14,4.83l-1.06-3.61c.62-.01,1.07,.03,1.37,.14,.51,.17,.85,.55,1.01,1.12,.11,.36,.12,.7,.05,1.02-.14,.62-.6,1.07-1.37,1.33h0Z"/>
        </g>
      </g>
      <path id="Path-2" data-name="Path" class="cls-2" d="M92.92,54.27L21.06,74.37c-1.42,.4-2.9-.44-3.29-1.85L7.57,36.05c-.4-1.42,.44-2.9,1.85-3.29L81.27,12.66c1.42-.4,2.9,.44,3.29,1.85l10.2,36.46c.4,1.41-.44,2.9-1.85,3.29Z"/>
      <g id="_-2" data-name="$">
        <g id="path-2-link">
          <path id="path-2" d="M79.02,30.42l-.32-1.35c.82-.29,1.41-.64,1.79-1.03,.68-.71,.87-1.68,.57-2.92-.21-.85-.67-1.42-1.4-1.71-.45-.17-1.25-.28-2.39-.32h0l-.81-3.38c.65-.13,1.17,0,1.57,.4,.22,.22,.39,.5,.5,.84h0l1.22-.29c-.21-.78-.62-1.35-1.23-1.72-.61-.36-1.38-.46-2.32-.31h0l-.22-.91-.66,.16,.22,.92c-.93,.23-1.58,.69-1.97,1.38-.38,.69-.49,1.39-.32,2.09,.19,.79,.58,1.35,1.16,1.68,.58,.33,1.4,.47,2.45,.42h0l.91,3.79c-.79,.12-1.4-.04-1.81-.5-.23-.25-.44-.69-.63-1.32h0l-1.23,.3c.19,.8,.48,1.4,.85,1.8,.69,.75,1.72,1.01,3.09,.77h0l.32,1.35,.66-.16Zm-2.47-7.3c-.54,.02-.99-.06-1.36-.25s-.6-.51-.71-.97c-.09-.38-.05-.77,.12-1.18s.56-.7,1.16-.87h0l.79,3.27Zm1.9,4.93l-.88-3.66c.62,.02,1.07,.09,1.36,.2,.5,.2,.82,.59,.96,1.17,.09,.37,.09,.71,0,1.02-.17,.61-.65,1.04-1.43,1.26h0Z"/>
        </g>
        <g id="path-2-link-2" data-name="path-2-link">
          <path id="path-2-2" data-name="path-2" class="cls-3" d="M79.02,30.42l-.32-1.35c.82-.29,1.41-.64,1.79-1.03,.68-.71,.87-1.68,.57-2.92-.21-.85-.67-1.42-1.4-1.71-.45-.17-1.25-.28-2.39-.32h0l-.81-3.38c.65-.13,1.17,0,1.57,.4,.22,.22,.39,.5,.5,.84h0l1.22-.29c-.21-.78-.62-1.35-1.23-1.72-.61-.36-1.38-.46-2.32-.31h0l-.22-.91-.66,.16,.22,.92c-.93,.23-1.58,.69-1.97,1.38-.38,.69-.49,1.39-.32,2.09,.19,.79,.58,1.35,1.16,1.68,.58,.33,1.4,.47,2.45,.42h0l.91,3.79c-.79,.12-1.4-.04-1.81-.5-.23-.25-.44-.69-.63-1.32h0l-1.23,.3c.19,.8,.48,1.4,.85,1.8,.69,.75,1.72,1.01,3.09,.77h0l.32,1.35,.66-.16Zm-2.47-7.3c-.54,.02-.99-.06-1.36-.25s-.6-.51-.71-.97c-.09-.38-.05-.77,.12-1.18s.56-.7,1.16-.87h0l.79,3.27Zm1.9,4.93l-.88-3.66c.62,.02,1.07,.09,1.36,.2,.5,.2,.82,.59,.96,1.17,.09,.37,.09,.71,0,1.02-.17,.61-.65,1.04-1.43,1.26h0Z"/>
        </g>
      </g>
      <path id="Path-3" data-name="Path" class="cls-2" d="M95.47,66.03l-73.88,10.44c-1.46,.2-2.82-.82-3.02-2.27l-5.3-37.49c-.2-1.46,.82-2.82,2.27-3.02l73.88-10.44c1.46-.2,2.82,.82,3.02,2.27l5.3,37.49c.21,1.46-.82,2.82-2.27,3.02Z"/>
      <g id="_-3" data-name="$">
        <g id="path-3-link">
          <path id="path-3" d="M85.25,40.2l-.15-1.38c.85-.19,1.48-.45,1.91-.8,.76-.62,1.07-1.56,.94-2.82-.1-.87-.49-1.5-1.18-1.87-.42-.23-1.2-.43-2.33-.62h0l-.38-3.45c.66-.05,1.16,.15,1.51,.6,.19,.24,.32,.54,.39,.9h0l1.24-.14c-.11-.8-.45-1.42-1.01-1.86-.56-.44-1.31-.63-2.26-.6h0l-.1-.93-.68,.07,.1,.95c-.95,.11-1.66,.49-2.13,1.12-.47,.64-.66,1.31-.58,2.03,.09,.81,.4,1.41,.94,1.81,.54,.4,1.33,.64,2.37,.73h0l.42,3.87c-.8,.02-1.38-.22-1.73-.72-.2-.28-.35-.74-.46-1.39h0l-1.26,.14c.09,.82,.29,1.45,.62,1.9,.59,.83,1.58,1.22,2.97,1.16h0l.15,1.38,.68-.07Zm-1.52-7.55c-.54-.05-.98-.19-1.32-.42-.34-.23-.53-.58-.59-1.05-.04-.39,.05-.78,.27-1.16,.22-.38,.65-.62,1.26-.71h0l.36,3.34Zm1.26,5.13l-.41-3.74c.61,.1,1.05,.22,1.32,.37,.47,.26,.74,.69,.8,1.28,.04,.37,0,.71-.13,1.01-.25,.59-.77,.95-1.58,1.07h0Z"/>
        </g>
        <g id="path-3-link-2" data-name="path-3-link">
          <path id="path-3-2" data-name="path-3" class="cls-3" d="M85.25,40.2l-.15-1.38c.85-.19,1.48-.45,1.91-.8,.76-.62,1.07-1.56,.94-2.82-.1-.87-.49-1.5-1.18-1.87-.42-.23-1.2-.43-2.33-.62h0l-.38-3.45c.66-.05,1.16,.15,1.51,.6,.19,.24,.32,.54,.39,.9h0l1.24-.14c-.11-.8-.45-1.42-1.01-1.86-.56-.44-1.31-.63-2.26-.6h0l-.1-.93-.68,.07,.1,.95c-.95,.11-1.66,.49-2.13,1.12-.47,.64-.66,1.31-.58,2.03,.09,.81,.4,1.41,.94,1.81,.54,.4,1.33,.64,2.37,.73h0l.42,3.87c-.8,.02-1.38-.22-1.73-.72-.2-.28-.35-.74-.46-1.39h0l-1.26,.14c.09,.82,.29,1.45,.62,1.9,.59,.83,1.58,1.22,2.97,1.16h0l.15,1.38,.68-.07Zm-1.52-7.55c-.54-.05-.98-.19-1.32-.42-.34-.23-.53-.58-.59-1.05-.04-.39,.05-.78,.27-1.16,.22-.38,.65-.62,1.26-.71h0l.36,3.34Zm1.26,5.13l-.41-3.74c.61,.1,1.05,.22,1.32,.37,.47,.26,.74,.69,.8,1.28,.04,.37,0,.71-.13,1.01-.25,.59-.77,.95-1.58,1.07h0Z"/>
        </g>
      </g>
      <path id="Path-4" data-name="Path" class="cls-2" d="M96.16,76.59H21.55c-1.47,0-2.67-1.2-2.67-2.67V36.05c0-1.47,1.2-2.67,2.67-2.67H96.16c1.47,0,2.67,1.2,2.67,2.67v37.86c0,1.47-1.2,2.67-2.67,2.67Z"/>
      <g id="_-4" data-name="$">
        <g id="path-4-link">
          <path id="path-4" d="M28.8,74.6v-1.39c.86-.1,1.52-.29,1.98-.59,.82-.53,1.24-1.43,1.24-2.7,0-.88-.32-1.54-.97-1.99-.4-.27-1.15-.56-2.25-.87h0v-3.48c.66,.02,1.14,.28,1.44,.76,.16,.26,.26,.57,.29,.94h1.25c-.02-.81-.29-1.46-.8-1.96-.51-.49-1.24-.77-2.18-.84h0v-.94h-.68v.95c-.96,0-1.7,.31-2.23,.89-.53,.58-.8,1.23-.8,1.96,0,.81,.25,1.44,.74,1.9,.49,.46,1.25,.78,2.28,.98h0v3.9c-.8-.07-1.35-.37-1.64-.91-.17-.3-.27-.78-.31-1.43h-1.27c0,.82,.14,1.47,.41,1.95,.5,.89,1.44,1.38,2.82,1.47h0v1.39h.68Zm-.69-7.67c-.53-.1-.95-.29-1.26-.56-.31-.27-.47-.64-.47-1.11,0-.39,.13-.77,.4-1.12,.26-.36,.71-.55,1.33-.57h0v3.36Zm.69,5.23v-3.76c.6,.16,1.02,.33,1.27,.51,.44,.31,.66,.76,.66,1.36,0,.38-.08,.71-.24,.99-.31,.56-.87,.86-1.69,.89h0Z"/>
        </g>
        <g id="path-4-link-2" data-name="path-4-link">
          <path id="path-4-2" data-name="path-4" class="cls-3" d="M28.8,74.6v-1.39c.86-.1,1.52-.29,1.98-.59,.82-.53,1.24-1.43,1.24-2.7,0-.88-.32-1.54-.97-1.99-.4-.27-1.15-.56-2.25-.87h0v-3.48c.66,.02,1.14,.28,1.44,.76,.16,.26,.26,.57,.29,.94h1.25c-.02-.81-.29-1.46-.8-1.96-.51-.49-1.24-.77-2.18-.84h0v-.94h-.68v.95c-.96,0-1.7,.31-2.23,.89-.53,.58-.8,1.23-.8,1.96,0,.81,.25,1.44,.74,1.9,.49,.46,1.25,.78,2.28,.98h0v3.9c-.8-.07-1.35-.37-1.64-.91-.17-.3-.27-.78-.31-1.43h-1.27c0,.82,.14,1.47,.41,1.95,.5,.89,1.44,1.38,2.82,1.47h0v1.39h.68Zm-.69-7.67c-.53-.1-.95-.29-1.26-.56-.31-.27-.47-.64-.47-1.11,0-.39,.13-.77,.4-1.12,.26-.36,.71-.55,1.33-.57h0v3.36Zm.69,5.23v-3.76c.6,.16,1.02,.33,1.27,.51,.44,.31,.66,.76,.66,1.36,0,.38-.08,.71-.24,.99-.31,.56-.87,.86-1.69,.89h0Z"/>
        </g>
      </g>
      <g id="_-5" data-name="$">
        <g id="path-5-link">
          <path id="path-5" d="M89.82,49.44v-1.39c.86-.1,1.52-.29,1.98-.59,.82-.53,1.24-1.43,1.24-2.7,0-.88-.32-1.54-.97-1.99-.4-.27-1.15-.56-2.25-.87h0v-3.48c.66,.02,1.14,.28,1.44,.76,.16,.26,.26,.57,.29,.94h1.25c-.02-.81-.29-1.46-.8-1.96s-1.24-.77-2.18-.84h0v-.94h-.68v.95c-.96,0-1.7,.31-2.23,.89-.53,.58-.8,1.23-.8,1.96,0,.81,.25,1.44,.74,1.9,.49,.46,1.25,.78,2.28,.98h0v3.9c-.8-.07-1.35-.37-1.64-.91-.17-.3-.27-.78-.31-1.43h-1.27c0,.82,.14,1.47,.41,1.95,.5,.89,1.44,1.38,2.82,1.47h0v1.39h.68Zm-.69-7.67c-.53-.1-.95-.29-1.26-.56-.31-.27-.47-.64-.47-1.11,0-.39,.13-.77,.4-1.12,.26-.36,.71-.55,1.33-.57h0v3.36Zm.69,5.23v-3.76c.6,.16,1.02,.33,1.27,.51,.44,.31,.66,.76,.66,1.36,0,.38-.08,.71-.24,.99-.31,.56-.87,.86-1.69,.89h0Z"/>
        </g>
        <g id="path-5-link-2" data-name="path-5-link">
          <path id="path-5-2" data-name="path-5" class="cls-3" d="M89.82,49.44v-1.39c.86-.1,1.52-.29,1.98-.59,.82-.53,1.24-1.43,1.24-2.7,0-.88-.32-1.54-.97-1.99-.4-.27-1.15-.56-2.25-.87h0v-3.48c.66,.02,1.14,.28,1.44,.76,.16,.26,.26,.57,.29,.94h1.25c-.02-.81-.29-1.46-.8-1.96s-1.24-.77-2.18-.84h0v-.94h-.68v.95c-.96,0-1.7,.31-2.23,.89-.53,.58-.8,1.23-.8,1.96,0,.81,.25,1.44,.74,1.9,.49,.46,1.25,.78,2.28,.98h0v3.9c-.8-.07-1.35-.37-1.64-.91-.17-.3-.27-.78-.31-1.43h-1.27c0,.82,.14,1.47,.41,1.95,.5,.89,1.44,1.38,2.82,1.47h0v1.39h.68Zm-.69-7.67c-.53-.1-.95-.29-1.26-.56-.31-.27-.47-.64-.47-1.11,0-.39,.13-.77,.4-1.12,.26-.36,.71-.55,1.33-.57h0v3.36Zm.69,5.23v-3.76c.6,.16,1.02,.33,1.27,.51,.44,.31,.66,.76,.66,1.36,0,.38-.08,.71-.24,.99-.31,.56-.87,.86-1.69,.89h0Z"/>
        </g>
      </g>
      <ellipse id="Oval" class="cls-1" cx="58.52" cy="55.32" rx="13.03" ry="16.7"/>
    </g>
  </g>
</svg>